<svg xmlns="http://www.w3.org/2000/svg" viewBox="0 0 820.88 313.82"><defs><style>.cls-1{fill:#fff;}</style></defs><title>Asset 1</title><g id="Layer_2" data-name="Layer 2"><g id="Layer_1-2" data-name="Layer 1"><path class="cls-1" d="M0,0H820.88V313.82H0ZM568.14,208.05l-1,0q-4-14.92-8-29.84c-1.94-7.25-2.31-7.45-10-5.63q-4.77,17.69-9.58,35.46l-1-.12c-1.87-8.34-3.73-16.69-5.67-25.36L525,184c3,11.91,5.95,23.32,8.72,34.76.7,2.93,1.14,5.1,5.16,5.14s4.51-2.14,5.27-5c2.91-11.07,6-22.1,9.34-34.4.79,2.78,1.25,4.3,1.66,5.84,2.62,10,5.4,19.9,7.77,29.93.79,3.37,2.73,3.43,5.4,3.56,2.94.16,4.14-1,4.72-3.75,1.1-5.2,2.5-10.34,3.78-15.51,2.64-10.73,5.29-21.47,8-32.48H576.2C573.49,184.14,570.82,196.09,568.14,208.05ZM385,102.08c-10.06-.73-10.07-.73-13,8.06-.69,2-1.25,4.14-1.92,6.19-2.69,8.34-5.4,16.68-8.48,26.19-3.72-11.51-7.13-21.75-10.34-32.05-2.81-9-2.71-9.08-12.12-8.51-.28,0-.54.29-.92.51v50.81h7.08V119a10.59,10.59,0,0,1,2.77,4.77c2.88,8.67,5.85,17.32,8.54,26.06.8,2.59,1.78,3.84,4.74,3.88s4.49-1.09,5.28-3.95c1.28-4.64,2.84-9.21,4.34-13.79,1.9-5.78,3.85-11.53,5.78-17.3l1.14.28v34.21H385ZM52.34,102v51.21H85.72v-7.4H60.05V130.31H83.49V123H60V109.55L72.47,109v-7Zm641,84.68h25.9v-7.61h-25.8V165.23h28v-7H685.55v51.27h21.58v-7.55H693.38ZM216.39,146V130.43h25.68V122.8h-25.6V109.08h28v-7H208.75v51.14h21.17V146ZM456,117.12l1-.12c6.24,10.41,12.83,20.64,18.57,31.32,2.82,5.23,6.23,6.17,11.4,4.69V102.06h-7.32v36.47c-7.2-10.47-13.41-21.07-19.66-31.65-3.5-5.93-4.39-6.24-11.55-4.29v37.09H456ZM434.4,130.54V123H408.58V109.13h13.89v-6.89H401.06v50.93h36.07v-7.26h-28.6V130.54Zm305,59.9c8.34,4.36,16.27,4.44,24.19.67,6.13-2.92,8.57-8.05,7.88-15.3-.61-6.38-4.05-10.27-10.75-12.12-4.49-1.24-9-2.35-13.47-3.67-3.06-.9-5.6-2.51-5.21-6.28a7.43,7.43,0,0,1,6.18-6.91c7.59-1.8,11.3.6,15.07,9.79h6.24c1-6.69-1.3-11.67-6.79-14.84-6.83-3.94-17.45-3.49-22.69.95-4.94,4.18-6.39,9.52-5.33,15.73,1,5.83,5.36,8.08,10.33,9.57,4.61,1.38,9.49,2.12,13.83,4.06,2.13.95,4.66,4,4.59,6.07-.08,2.38-2.3,5.65-4.5,6.76A14.5,14.5,0,0,1,749.4,186C744.75,184.8,742.36,186.74,739.39,190.44Zm-602-76.89c-6.52-3.79-6.52-3.79-14.31,6.37-2.87-4.23-5.65-8.32-8.44-12.41-4.46-6.53-5.3-6.84-13.69-4.89,4.29,6.25,8.08,12.73,12.84,18.4,3.79,4.53,3.31,7.67-.14,12-5,6.26-9.31,13.08-14.26,20.16,6.23,1,10.7.91,13.69-5,2.54-5,6.33-9.43,9.83-14.49,3.48,5.24,6.49,9.81,9.53,14.37,4.41,6.61,4.47,6.62,13.58,4.88-4.9-7.09-9.48-14.15-14.53-20.86-2.73-3.64-3.11-6.55,0-10.07C133.65,119.49,135.29,116.57,137.37,113.55Zm492.05,64.37c-.06.32-.25.68-.16.94,5.53,16,11,32.06,16.79,48,.46,1.27,3.3,2.29,5,2.28,1.49,0,3.81-1.29,4.32-2.59,3.08-7.88,5.78-15.92,8.56-23.93s5.59-16.22,8.39-24.37c-7.93-1.92-8.27-1.75-10.45,5-.66,2-1.22,4.14-1.88,6.2-3,9.3-6,18.59-9.36,29.16-4-12.62-7.63-23.94-11.29-35.24C637.15,176.52,637.1,176.54,629.42,177.92ZM259.34,139.77h7.46c.18-2.69.35-5.09.52-7.75,5.16,0,10-.08,14.76,0,4.58.1,7,2.37,7,7.15.07,4.61.51,9.22.78,13.74h10.65c-7-7.77.46-18.62-7.82-25,1-1.11,1.84-1.91,2.51-2.84,5.78-8,2.42-20.78-6.79-22.11-9.49-1.38-19.33-.31-29.11-.31ZM602.54,146V102.11H595v51h31.51V146Zm-8.06,81.3c2.88-2,4.46-4.07,6.21-4.24,4.93-.46,9.94-.16,15.08-.16,1,3.05,1.93,5.87,2.87,8.69,2.34,7.08,2.34,7.08,10.24,5.8a4.75,4.75,0,0,0,0-1.46c-5.44-15.67-11-31.31-16.28-47-1-3.05-3.05-2.85-5.41-2.94-2.52-.08-4.29.21-5.25,3.15-2.42,7.41-5.25,14.68-7.86,22-1.76,4.94-3.42,9.9-5.25,15.2Zm-9.58-74.19c-5.74-16.57-11.25-32.73-17.09-48.78-.47-1.28-3.17-2.08-5-2.47-2.34-.51-4.36-.12-5.38,2.87C553.28,117,548.85,129.19,544.3,142c3.4-.13,7.11,3.77,9.07-2.26.2-.63,2-1,3-1.08,2.32-.16,4.66-.1,7,0,9.56.21,7.54-1.6,10.57,8C576.32,154.1,576.25,154.12,584.9,153.15Zm-45.73-50.9h-39.8v6.9h15.87v44.08h8.38v-44.3h15.55ZM167,132.13c6,0,11.33.25,16.6-.06,7.2-.43,12-5.7,12.86-13.52s-2.81-15-9.71-15.8c-8.91-1-18-.25-27.16-.25v50.74H167Zm148.18-22.87v44.37l7.32-.38v-44Z"/><path d="M568.14,208.05c2.68-12,5.35-23.91,8.06-36h8.58c-2.71,11-5.36,21.75-8,32.48-1.28,5.17-2.68,10.31-3.78,15.51-.58,2.75-1.78,3.91-4.72,3.75-2.67-.13-4.61-.19-5.4-3.56-2.37-10-5.15-20-7.77-29.93-.41-1.54-.87-3.06-1.66-5.84-3.36,12.3-6.43,23.33-9.34,34.4-.76,2.89-1.25,5.07-5.27,5s-4.46-2.21-5.16-5.14C530.91,207.29,528,195.88,525,184l8-1.45c1.94,8.67,3.8,17,5.67,25.36l1,.12q4.8-17.76,9.58-35.46c7.67-1.82,8-1.62,10,5.63q4,14.91,8,29.84Zm.06,6.36-.91-.09c-3.41-12.65-6.72-25.32-10.34-37.9-.39-1.34-2.52-2.82-4-3-1-.11-2.85,1.79-3.25,3.12-2.11,7-3.89,14.09-5.78,21.16q-2.19,8.28-4.36,16.57l-1.09,0c-2.24-9.91-4.48-19.82-6.77-30l-4.8,1.15c3.11,12.4,6.13,24.45,9.12,36.4h5.72c3.84-14.25,7.59-28.19,11.65-43.24.77,2.55,1.25,3.95,1.62,5.37,3,11.25,6.11,22.46,8.8,33.78,1,4,2.76,5.3,7.07,3.89,3.92-15.76,7.9-31.8,11.89-47.87-3.78-1.28-5.64-.46-6.27,3.38-.93,5.57-2.29,11.07-3.53,16.58C571.43,200.62,569.8,207.51,568.2,214.41Z"/><path d="M385,102.08v51.06h-7.1V118.93l-1.14-.28c-1.93,5.77-3.88,11.52-5.78,17.3-1.5,4.58-3.06,9.15-4.34,13.79-.79,2.86-2.19,4-5.28,3.95s-3.94-1.29-4.74-3.88c-2.69-8.74-5.66-17.39-8.54-26.06a10.59,10.59,0,0,0-2.77-4.77v34.3h-7.08V102.47c.38-.22.64-.49.92-.51,9.41-.57,9.31-.53,12.12,8.51,3.21,10.3,6.62,20.54,10.34,32.05,3.08-9.51,5.79-17.85,8.48-26.19.67-2,1.23-4.14,1.92-6.19C374.91,101.35,374.92,101.35,385,102.08Zm-45.21,1.54a4.21,4.21,0,0,0-.48,1.35c0,14.66,0,29.32-.1,44,0,3.93,2.21,3.08,4.81,2.65V109.12a2,2,0,0,1,1.38,1.42c4.12,12.65,8.16,25.32,12.45,37.91.49,1.42,2.42,3.26,3.69,3.26s3.13-1.84,3.65-3.28c2.24-6.08,4.05-12.31,6.07-18.48,2.3-7,4.66-14,7-21l.94.16v42.44c3.91,1.21,4.78-.31,4.72-3.6-.16-9-.05-18-.05-27V103.84c-5.61-1.85-8.75-.7-9.88,5-.84,4.22-2.53,8.26-3.86,12.37-2.69,8.35-5.4,16.68-8.5,26.24-4.45-13.74-8.83-26.11-12.37-38.71C347.62,103,344.67,102.21,339.77,103.62Z"/><path d="M52.34,102H72.47v7L60,109.55V123H83.49v7.31H60.05v15.52H85.72v7.4H52.34Zm1.75,50c9.56,0,18.53.07,27.51-.1,1,0,2-1.33,3-2.05-1-.74-2-1.79-3.1-2.14a13.81,13.81,0,0,0-4-.1H58.38V128.81H81.51c1.27-3.26.07-4.14-2.8-4.09-6.77.1-13.54,0-20.44,0V107.89H70.78l.94-1.16c-1-1.2-2-3.33-3.06-3.41-4.75-.39-9.54-.17-14.57-.17Z"/><path d="M693.38,186.7v15.23h13.75v7.55H685.55V158.21h35.92v7h-28v13.86h25.8v7.61Zm-1.22-5.92v-16.9h29.45c-1.84-2.31-2.78-4.54-3.78-4.57-10.1-.26-20.21-.15-30.58-.15v48.57h18.58a17.66,17.66,0,0,0,0-2.71c-4.55-.72-9.13-1.3-13.56-1.87V185c7.72,0,15-.08,22.33,0,3.2,0,4.24-1,2.71-4.3Z"/><path d="M216.39,146h13.53v7.3H208.75V102.11h35.74v7h-28V122.8h25.6v7.63H216.39ZM215.28,147V128.82h25.11c1.34-3.3.06-4.13-2.77-4.1-7.44.09-14.88,0-22.44,0V107.9h27.56l.9-1.19c-1-1.19-1.92-3.38-2.93-3.4-10.1-.26-20.21-.16-30.42-.16v48.54h18.44a18.86,18.86,0,0,0,0-3C224.37,148,220,147.56,215.28,147Z"/><path d="M456,117.12v22.56h-7.53V102.59c7.16-2,8.05-1.64,11.55,4.29,6.25,10.58,12.46,21.18,19.66,31.65V102.06H487V153c-5.17,1.48-8.58.54-11.4-4.69C469.85,137.64,463.26,127.41,457,117Zm29.75-13.47c-3.42-1.23-4.65-.2-4.62,3.27.12,11.15.06,22.31,0,33.47,0,1.17-.26,2.34-.51,4.47-7.84-13.24-15.27-25.44-22.28-37.89-2-3.62-4.32-4.59-8.56-3.26,0,10.83-.05,21.77.1,32.71,0,.81,1.48,1.59,2.27,2.39.68-.9,1.91-1.76,1.95-2.69.22-4.32.11-8.65.11-13V111.23c8.32,12,15.67,24.06,22.71,36.28,2.1,3.63,4.33,5.67,8.8,3.93Z"/><path d="M434.4,130.54H408.53v15.37h28.6v7.26H401.06V102.24h21.41v6.89H408.58V123H434.4Zm-32.13,21.18h33.14c1.4-3.62-.4-4.19-3.25-4.16-8.27.07-16.54,0-24.82,0V128.89h25.21c1.28-3.57-.32-4.21-3.19-4.18-7.27.1-14.55,0-22,0V107.82H421c-.11-1.7-.21-3-.3-4.42H402.27Z"/><path d="M739.39,190.44c3-3.7,5.36-5.64,10-4.41a14.5,14.5,0,0,0,9.56-1.11c2.2-1.11,4.42-4.38,4.5-6.76.07-2-2.46-5.12-4.59-6.07-4.34-1.94-9.22-2.68-13.83-4.06-5-1.49-9.33-3.74-10.33-9.57-1.06-6.21.39-11.55,5.33-15.73,5.24-4.44,15.86-4.89,22.69-.95,5.49,3.17,7.82,8.15,6.79,14.84h-6.24c-3.77-9.19-7.48-11.59-15.07-9.79a7.43,7.43,0,0,0-6.18,6.91c-.39,3.77,2.15,5.38,5.21,6.28,4.46,1.32,9,2.43,13.47,3.67,6.7,1.85,10.14,5.74,10.75,12.12.69,7.25-1.75,12.38-7.88,15.3C755.66,194.88,747.73,194.8,739.39,190.44Zm27.89-34.77,1.18-1.42c-.21-6.43-3.56-10.59-9.58-12.45-6.46-2-12.91-2.19-18.35,2.61-8.09,7.15-5.76,18.57,4.44,21.93,4.57,1.5,9.33,2.39,13.91,3.84,4,1.26,6.48,3.76,6.32,8.42s-2.72,7.52-7,8.43c-3.18.68-6.57.37-9.85.62-2,.16-4.06.55-6.09.84,0,.54.09,1.08.13,1.62,5.85,2.95,12,2.8,18.1.69,6.94-2.39,9.82-6.83,9.56-14-.22-6.13-3.32-9.81-10.19-11.83-4.61-1.35-9.5-2-13.83-3.95-2.28-1-5.07-4.09-5.07-6.24a11.36,11.36,0,0,1,4.12-8.2c6.17-4.29,15.16-1,18.4,5.82C764.14,153.78,766,154.6,767.28,155.67Z"/><path d="M137.37,113.55c-2.08,3-3.72,5.94-5.89,8.39-3.12,3.52-2.74,6.43,0,10.07,5.05,6.71,9.63,13.77,14.53,20.86-9.11,1.74-9.17,1.73-13.58-4.88-3-4.56-6-9.13-9.53-14.37-3.5,5.06-7.29,9.46-9.83,14.49-3,6-7.46,6-13.69,5,4.95-7.08,9.26-13.9,14.26-20.16,3.45-4.31,3.93-7.45.14-12-4.76-5.67-8.55-12.15-12.84-18.4,8.39-2,9.23-1.64,13.69,4.89,2.79,4.09,5.57,8.18,8.44,12.41C130.85,109.76,130.85,109.76,137.37,113.55Zm-14.51,17.28c4.17,6.25,8.07,11.47,11.26,17.09,2.09,3.67,4.51,4.93,8.73,3.58-.93-1.6-1.74-3.2-2.75-4.68-3.93-5.78-8.06-11.43-11.76-17.35a6,6,0,0,1,0-5.12c1.93-3.57,4.45-6.84,7-10.68l-4.91-1.28-7.36,10.4c-4-5.85-7.54-11-11-16.26-2.65-4-2.76-4.08-8.29-2.4,3.64,5.28,7.21,10.46,10.76,15.65,5.64,8.24,5.91,5.77,0,14.3-4,5.73-8,11.5-12,17.35,4.59,1.47,6.8-.13,8.8-3.48C114.72,142.28,118.69,137,122.86,130.83Z"/><path d="M629.42,177.92c7.68-1.38,7.73-1.4,10,5.44,3.66,11.3,7.25,22.62,11.29,35.24,3.4-10.57,6.39-19.86,9.36-29.16.66-2.06,1.22-4.15,1.88-6.2,2.18-6.77,2.52-6.94,10.45-5-2.8,8.15-5.57,16.27-8.39,24.37s-5.48,16-8.56,23.93c-.51,1.3-2.83,2.59-4.32,2.59-1.73,0-4.57-1-5-2.28-5.8-15.91-11.26-32-16.79-48C629.17,178.6,629.36,178.24,629.42,177.92Zm40.91,1.58c-4.08-1.36-5.73-.1-6.75,3.36-3,10.21-6.33,20.32-9.56,30.46-1,3-2,6-3.41,10.09-4.55-14.21-8.78-27.17-12.8-40.19-1.13-3.64-2.8-5.32-6.82-3.66,5.13,14.74,10.36,29.29,15.17,44,1.35,4.13,3.39,5.25,7.53,3.93Q661.93,203.75,670.33,179.5Z"/><path d="M259.34,139.77V102.63c9.78,0,19.62-1.07,29.11.31,9.21,1.33,12.57,14.08,6.79,22.11-.67.93-1.52,1.73-2.51,2.84,8.28,6.42.78,17.27,7.82,25H289.9c-.27-4.52-.71-9.13-.78-13.74-.08-4.78-2.46-7.05-7-7.15-4.8-.1-9.6,0-14.76,0-.17,2.66-.34,5.06-.52,7.75Zm30.27-11.69a48.7,48.7,0,0,0,3.83-3.33c5.88-6.46,3.28-19-4.91-20.45-9-1.54-18.32-1.08-27.52-1.48v35.87c7.83,1,2.93-5.61,5.74-8.08,5.09,0,10.72-.13,16.33,0,4.51.14,6.94,2.66,7.23,7.25s.68,9.19,1,13.73h5.93C293.59,143.89,299.63,133.71,289.61,128.08Z"/><path d="M602.54,146h24v7.11H595v-51h7.5ZM601,103.63c-3.84-1.17-5-.06-5,3.38.15,12,.06,23.93.06,35.89v8.85h28.56c1.1-3.31-.19-4.25-3.22-4.2-6.72.11-13.44,0-20.42,0Z"/><path d="M594.48,227.34l-5.67-1c1.83-5.3,3.49-10.26,5.25-15.2,2.61-7.35,5.44-14.62,7.86-22,1-2.94,2.73-3.23,5.25-3.15,2.36.09,4.38-.11,5.41,2.94,5.31,15.72,10.84,31.36,16.28,47a4.75,4.75,0,0,1,0,1.46c-7.9,1.28-7.9,1.28-10.24-5.8-.94-2.82-1.86-5.64-2.87-8.69-5.14,0-10.15-.3-15.08.16C598.94,223.27,597.36,225.3,594.48,227.34Zm32.93,9.49c-4.19-12.33-7.86-23.19-11.59-34-1.46-4.25-2.91-8.51-4.71-12.61a4.62,4.62,0,0,0-3.43-2.44c-1.45,0-3.72,1.05-4.16,2.21-4.38,11.45-8.44,23-12.59,34.56L592,225.9c1.38-.82,2.76-1.62,4.13-2.45,1.15-.71,2.26-2,3.43-2.07,5.64-.22,11.3-.1,16.41-.1C620.37,226,617.63,235,627.41,236.83Z"/><path d="M584.9,153.15c-8.65,1-8.58.95-11-6.56-3-9.6-1-7.79-10.57-8-2.33-.05-4.67-.11-7,0-1.06.08-2.81.45-3,1.08-2,6-5.67,2.13-9.07,2.26,4.55-12.79,9-25,13.16-37.21,1-3,3-3.38,5.38-2.87,1.8.39,4.5,1.19,5,2.47C573.65,120.42,579.16,136.58,584.9,153.15ZM546.26,141c2.06-.15,4.4.07,4.54-.39,1.67-5.46,6.09-3.52,9.53-3.57,11.84-.16,12-.1,15.65,11.1,1.19,3.62,2.94,4.75,6.61,3.26-5.24-15.37-10.38-30.64-15.75-45.83a4.57,4.57,0,0,0-3.62-2.25c-1.44,0-3.7,1.07-4.14,2.23C554.74,117,550.69,128.59,546.26,141Z"/><path d="M539.17,102.25v6.68H523.62v44.3h-8.38V109.15H499.37v-6.9Zm-1.74,5.5c1.2-3.52.24-4.7-3-4.66-10,.13-20,0-29.95.16-1.27,0-2.51,1.58-3.76,2.42,1.22.71,2.41,2,3.67,2,4.07.26,8.16.09,12.72.09v44.3l5.15-.61V107.75Z"/><path d="M167,132.13v21.11h-7.41V102.5c9.12,0,18.25-.79,27.16.25,6.9.81,10.55,8.09,9.71,15.8s-5.66,13.09-12.86,13.52C178.33,132.38,173,132.13,167,132.13Zm-.86,19.6V130.86h8.43c2.66,0,5.33.11,8-.09,7.5-.56,12.06-5.4,12.44-13,.39-7.82-3.6-13.72-10.74-14.28-7.55-.6-15.19-.14-23.09-.14v48.41c.94.09,1.58.19,2.22.2S164.68,151.85,166.14,151.73Z"/><path d="M315.18,109.26h7.32v44l-7.32.38ZM321,111c-4.73-.17-4.81-.17-4.85,3.54-.06,6,0,12,0,18v19.64l4.86-.49Z"/><path class="cls-1" d="M568.2,214.41c1.6-6.9,3.23-13.79,4.79-20.7,1.24-5.51,2.6-11,3.53-16.58.63-3.84,2.49-4.66,6.27-3.38-4,16.07-8,32.11-11.89,47.87-4.31,1.41-6.11.14-7.07-3.89C561.14,206.41,558,195.2,555,184c-.37-1.42-.85-2.82-1.62-5.37-4.06,15-7.81,29-11.65,43.24H536c-3-11.95-6-24-9.12-36.4l4.8-1.15c2.29,10.15,4.53,20.06,6.77,30l1.09,0q2.17-8.28,4.36-16.57c1.89-7.07,3.67-14.17,5.78-21.16.4-1.33,2.25-3.23,3.25-3.12,1.46.16,3.59,1.64,4,3,3.62,12.58,6.93,25.25,10.34,37.9Z"/><path class="cls-1" d="M339.77,103.62c4.9-1.41,7.85-.61,9.46,5.12,3.54,12.6,7.92,25,12.37,38.71,3.1-9.56,5.81-17.89,8.5-26.24,1.33-4.11,3-8.15,3.86-12.37,1.13-5.7,4.27-6.85,9.88-5V121c0,9-.11,18,.05,27,.06,3.29-.81,4.81-4.72,3.6V109.12l-.94-.16c-2.33,7-4.69,14-7,21-2,6.17-3.83,12.4-6.07,18.48-.52,1.44-2.4,3.29-3.65,3.28s-3.2-1.84-3.69-3.26c-4.29-12.59-8.33-25.26-12.45-37.91a2,2,0,0,0-1.38-1.42V151.6c-2.6.43-4.83,1.28-4.81-2.65.08-14.66.06-29.32.1-44A4.21,4.21,0,0,1,339.77,103.62Z"/><path class="cls-1" d="M54.09,152V103.15c5,0,9.82-.22,14.57.17,1.1.08,2,2.21,3.06,3.41l-.94,1.16H58.27v16.86c6.9,0,13.67.07,20.44,0,2.87,0,4.07.83,2.8,4.09H58.38v18.77H77.57a13.81,13.81,0,0,1,4,.1c1.14.35,2.08,1.4,3.1,2.14-1,.72-2,2-3,2.05C72.62,152,63.65,152,54.09,152Z"/><path class="cls-1" d="M692.16,180.78H717.3c1.53,3.33.49,4.35-2.71,4.3-7.3-.12-14.61,0-22.33,0v18.11c4.43.57,9,1.15,13.56,1.87a17.66,17.66,0,0,1,0,2.71H687.25V159.16c10.37,0,20.48-.11,30.58.15,1,0,1.94,2.26,3.78,4.57H692.16Z"/><path class="cls-1" d="M215.28,147c4.72.52,9.09,1,13.43,1.62a18.86,18.86,0,0,1,0,3H210.29V103.15c10.21,0,20.32-.1,30.42.16,1,0,2,2.21,2.93,3.4l-.9,1.19H215.18v16.85c7.56,0,15,.06,22.44,0,2.83,0,4.11.8,2.77,4.1H215.28Z"/><path class="cls-1" d="M485.74,103.65v47.79c-4.47,1.74-6.7-.3-8.8-3.93-7-12.22-14.39-24.27-22.71-36.28v11.91c0,4.33.11,8.66-.11,13,0,.93-1.27,1.79-1.95,2.69-.79-.8-2.26-1.58-2.27-2.39-.15-10.94-.1-21.88-.1-32.71,4.24-1.33,6.52-.36,8.56,3.26,7,12.45,14.44,24.65,22.28,37.89.25-2.13.5-3.3.51-4.47,0-11.16.09-22.32,0-33.47C481.09,103.45,482.32,102.42,485.74,103.65Z"/><path class="cls-1" d="M402.27,151.72V103.4h18.47c.09,1.38.19,2.72.3,4.42H407.38v16.93c7.43,0,14.71.06,22,0,2.87,0,4.47.61,3.19,4.18H407.34v18.69c8.28,0,16.55,0,24.82,0,2.85,0,4.65.54,3.25,4.16Z"/><path class="cls-1" d="M767.28,155.67c-1.29-1.07-3.14-1.89-3.8-3.27-3.24-6.77-12.23-10.11-18.4-5.82a11.36,11.36,0,0,0-4.12,8.2c0,2.15,2.79,5.22,5.07,6.24,4.33,1.93,9.22,2.6,13.83,3.95,6.87,2,10,5.7,10.19,11.83.26,7.17-2.62,11.61-9.56,14-6.12,2.11-12.25,2.26-18.1-.69,0-.54-.09-1.08-.13-1.62,2-.29,4-.68,6.09-.84,3.28-.25,6.67.06,9.85-.62,4.28-.91,6.83-3.68,7-8.43s-2.35-7.16-6.32-8.42c-4.58-1.45-9.34-2.34-13.91-3.84-10.2-3.36-12.53-14.78-4.44-21.93,5.44-4.8,11.89-4.61,18.35-2.61,6,1.86,9.37,6,9.58,12.45Z"/><path class="cls-1" d="M122.86,130.83c-4.17,6.13-8.14,11.45-11.53,17.12-2,3.35-4.21,5-8.8,3.48,4-5.85,8-11.62,12-17.35,5.94-8.53,5.67-6.06,0-14.3-3.55-5.19-7.12-10.37-10.76-15.65,5.53-1.68,5.64-1.59,8.29,2.4,3.49,5.24,7.06,10.41,11,16.26l7.36-10.4,4.91,1.28c-2.59,3.84-5.11,7.11-7,10.68a6,6,0,0,0,0,5.12c3.7,5.92,7.83,11.57,11.76,17.35,1,1.48,1.82,3.08,2.75,4.68-4.22,1.35-6.64.09-8.73-3.58C130.93,142.3,127,137.08,122.86,130.83Z"/><path class="cls-1" d="M670.33,179.5q-8.42,24.25-16.64,48c-4.14,1.32-6.18.2-7.53-3.93-4.81-14.68-10-29.23-15.17-44,4-1.66,5.69,0,6.82,3.66,4,13,8.25,26,12.8,40.19,1.38-4.07,2.45-7.06,3.41-10.09,3.23-10.14,6.55-20.25,9.56-30.46C664.6,179.4,666.25,178.14,670.33,179.5Z"/><path class="cls-1" d="M289.61,128.08c10,5.63,4,15.81,7.65,23.55h-5.93c-.34-4.54-.74-9.13-1-13.73s-2.72-7.11-7.23-7.25c-5.61-.17-11.24,0-16.33,0-2.81,2.47,2.09,9.1-5.74,8.08V102.82c9.2.4,18.53-.06,27.52,1.48,8.19,1.4,10.79,14,4.91,20.45A48.7,48.7,0,0,1,289.61,128.08ZM266,125.92c6.35,0,12.45.39,18.48-.12,4.62-.38,6.65-3.82,6.73-8.4.08-4.29-.74-8.64-5.57-9.17-6.46-.7-13-.17-19.64-.17Z"/><path class="cls-1" d="M601,103.63v44c7,0,13.7.07,20.42,0,3-.05,4.32.89,3.22,4.2H596.12V142.9c0-12,.09-23.92-.06-35.89C596,103.57,597.2,102.46,601,103.63Z"/><path class="cls-1" d="M627.41,236.83c-9.78-1.85-7-10.85-11.4-15.55-5.11,0-10.77-.12-16.41.1-1.17,0-2.28,1.36-3.43,2.07-1.37.83-2.75,1.63-4.13,2.45l-1.11-1.38c4.15-11.54,8.21-23.11,12.59-34.56.44-1.16,2.71-2.17,4.16-2.21a4.62,4.62,0,0,1,3.43,2.44c1.8,4.1,3.25,8.36,4.71,12.61C619.55,213.64,623.22,224.5,627.41,236.83Zm-28.94-20h16.82l-7.74-23.3-1,0C603.9,201.11,601.28,208.68,598.47,216.8Z"/><path class="cls-1" d="M546.26,141c4.43-12.4,8.48-24,12.82-35.45.44-1.16,2.7-2.18,4.14-2.23a4.57,4.57,0,0,1,3.62,2.25c5.37,15.19,10.51,30.46,15.75,45.83-3.67,1.49-5.42.36-6.61-3.26-3.68-11.2-3.81-11.26-15.65-11.1-3.44.05-7.86-1.89-9.53,3.57C550.66,141.06,548.32,140.84,546.26,141Zm24.7-8.22c-2.73-8.24-5.35-16.15-8.35-25.19-3.11,9.15-5.8,17-8.58,25.19Z"/><path class="cls-1" d="M537.43,107.75h-15.2v43.74l-5.15.61V107.8c-4.56,0-8.65.17-12.72-.09-1.26-.08-2.45-1.33-3.67-2,1.25-.84,2.49-2.39,3.76-2.42,10-.2,20,0,29.95-.16C537.67,103.05,538.63,104.23,537.43,107.75Z"/><path class="cls-1" d="M166.14,151.73c-1.46.12-2.11.22-2.77.22s-1.28-.11-2.22-.2V103.34c7.9,0,15.54-.46,23.09.14,7.14.56,11.13,6.46,10.74,14.28-.38,7.6-4.94,12.44-12.44,13-2.64.2-5.31.08-8,.09h-8.43Zm.21-43.89v18.25c5.84,0,11.34.46,16.72-.14,4.92-.55,7.27-4.56,6.9-9.9-.34-4.87-2.82-7.81-7.72-8.13C177,107.58,171.73,107.84,166.35,107.84Z"/><path class="cls-1" d="M321,111v40.64l-4.86.49V132.44c0-6-.05-12,0-18C316.17,110.78,316.25,110.78,321,111Z"/><path d="M266,125.92V108.06c6.59,0,13.18-.53,19.64.17,4.83.53,5.65,4.88,5.57,9.17-.08,4.58-2.11,8-6.73,8.4C278.4,126.31,272.3,125.92,266,125.92Zm1.25-.83c6.24-.34,12-.32,17.67-1.07,4.31-.57,5.09-4.21,4.92-8-.15-3.48-1.53-6.46-5.3-6.69-5.69-.35-11.43-.09-17.29-.09Z"/><path d="M598.47,216.8c2.81-8.12,5.43-15.69,8-23.26l1,0,7.74,23.3Zm9.14-18.43-1.26.07-5.72,17.14h12.59C611.25,209.55,609.43,204,607.61,198.37Z"/><path d="M571,132.77H554c2.78-8.14,5.47-16,8.58-25.19C565.61,116.62,568.23,124.53,571,132.77Zm-8.33-20.32c-2.38,6.8-4.37,12.52-6.46,18.49h12.61Z"/><path d="M166.35,107.84c5.38,0,10.66-.26,15.9.08,4.9.32,7.38,3.26,7.72,8.13.37,5.34-2,9.35-6.9,9.9-5.38.6-10.88.14-16.72.14Zm1,17c5.07,0,9.72.3,14.31-.09,4.14-.34,6.63-2.86,6.68-7.28,0-4-1-7.67-5.59-8.09-5-.46-10.15-.1-15.4-.1Z"/><path class="cls-1" d="M267.2,125.09V109.28c5.86,0,11.6-.26,17.29.09,3.77.23,5.15,3.21,5.3,6.69.17,3.75-.61,7.39-4.92,8C279.21,124.77,273.44,124.75,267.2,125.09Z"/><path class="cls-1" d="M607.61,198.37c1.82,5.59,3.64,11.18,5.61,17.21H600.63l5.72-17.14Z"/><path class="cls-1" d="M562.63,112.45l6.15,18.49H556.17C558.26,125,560.25,119.25,562.63,112.45Z"/><path class="cls-1" d="M167.34,124.86V109.3c5.25,0,10.36-.36,15.4.1,4.56.42,5.64,4,5.59,8.09-.05,4.42-2.54,6.94-6.68,7.28C177.06,125.16,172.41,124.86,167.34,124.86Z"/></g></g></svg>